<?xml version="1.0" encoding="utf-8"?>
<!-- Generator: Adobe Illustrator 26.5.0, SVG Export Plug-In . SVG Version: 6.00 Build 0)  -->
<svg version="1.1" id="Layer_1" xmlns="http://www.w3.org/2000/svg" xmlns:xlink="http://www.w3.org/1999/xlink" x="0px" y="0px"
	 viewBox="0 0 96 96" style="enable-background:new 0 0 96 96;" xml:space="preserve">
<style type="text/css">
	.st0{fill:#278E9D;}
	.st1{fill:#FFFFFF;}
	.st2{fill:#1A1A1A;}
	.st3{fill:none;}
	.st4{fill:#E0E0E0;}
	.st5{fill:#ABABAB;}
	.st6{fill:#C7C7C7;}
</style>
<g>
	<circle class="st0" cx="48" cy="48" r="47.5"/>
	<g>
		<path class="st1" d="M69.6,77.9H26.4c-2.8,0-5-2.3-5-5v-3.3c0-2.8,2.3-5,5-5h43.2c2.8,0,5,2.3,5,5v3.3
			C74.6,75.6,72.4,77.9,69.6,77.9z"/>
	</g>
	<g>
		<path class="st2" d="M36.6,68.5v1.7l1.6-0.6l0.5,1.3l-1.6,0.7l1,1.4L37,73.9l-1.1-1.4l-1.1,1.4l-1.1-0.8l1-1.5L33.1,71l0.5-1.3
			l1.7,0.6v-1.7H36.6z"/>
		<path class="st2" d="M45,68.5v1.7l1.6-0.6l0.5,1.3l-1.6,0.7l1,1.4l-1.1,0.8l-1.1-1.4l-1.1,1.4l-1.1-0.8l1-1.5L41.5,71l0.5-1.3
			l1.7,0.6v-1.7H45z"/>
		<path class="st2" d="M53.5,68.5v1.7l1.6-0.6l0.5,1.3L54,71.7l1,1.4l-1.1,0.8l-1.1-1.4l-1.1,1.4l-1.1-0.8l1-1.5L50,71l0.5-1.3
			l1.7,0.6v-1.7H53.5z"/>
		<path class="st2" d="M62,68.5v1.7l1.6-0.6l0.5,1.3l-1.6,0.7l1,1.4l-1.1,0.8l-1.1-1.4l-1.1,1.4l-1.1-0.8l1-1.5L58.5,71l0.5-1.3
			l1.7,0.6v-1.7H62z"/>
	</g>
	<path class="st3" d="M48,40c-1.3,0-2.3,1-2.3,2.3c0,0.8,0.4,1.5,1,1.9v2.9c0,0.4,0.3,0.7,0.7,0.7h1.2c0.4,0,0.7-0.3,0.7-0.7v-2.9
		c0.6-0.4,1-1.1,1-1.9C50.3,41.1,49.3,40,48,40z"/>
	<path class="st1" d="M59,32.5h-0.7h-3H40.6h-3H37c-1.8,0-3.3,1.5-3.3,3.3v8.8c0,6.7,5.5,12.2,12.2,12.2h4.2
		c6.7,0,12.2-5.5,12.2-12.2v-8.8C62.3,34,60.8,32.5,59,32.5z M49.3,44.2v2.9c0,0.4-0.3,0.7-0.7,0.7h-1.2c-0.4,0-0.7-0.3-0.7-0.7
		v-2.9c-0.6-0.4-1-1.1-1-1.9c0-1.3,1-2.3,2.3-2.3c1.3,0,2.3,1,2.3,2.3C50.3,43.1,49.9,43.8,49.3,44.2z"/>
	<path class="st4" d="M49.1,40.3c0.5,0.4,0.9,1.1,0.9,1.8c0,0.8-0.4,1.5-1,1.9V47c0,0.4-0.3,0.7-0.7,0.7h-1.2c-0.1,0-0.2,0-0.3-0.1
		c0.1,0.1,0.3,0.2,0.5,0.2h1.2c0.4,0,0.7-0.3,0.7-0.7v-2.9c0.6-0.4,1-1.1,1-1.9C50.3,41.5,49.8,40.7,49.1,40.3z"/>
	<path class="st4" d="M59.9,32.7c0,0.2,0,0.3,0,0.5V42c0,6.7-5.5,12.2-12.2,12.2h-4.2c-3,0-5.8-1.1-7.9-2.9c2.2,3.4,6,5.6,10.3,5.6
		h4.2c6.7,0,12.2-5.5,12.2-12.2v-8.8C62.3,34.3,61.3,33.1,59.9,32.7z"/>
	<path class="st1" d="M47.9,16c-5.7,0-10.3,4.7-10.3,10.5v3.9v2.2h3v-2.2v-3.9c0-4.1,3.2-7.4,7.3-7.5c4.1,0,7.5,3.3,7.5,7.4V28
		c0,0.1,0.1,0.2,0.2,0.2h2.5c0.1,0,0.2-0.1,0.2-0.2v-1.6C58.3,20.7,53.7,16,47.9,16z"/>
	<path class="st5" d="M55.4,25.2c0-4.1-3.3-7.4-7.4-7.4c-4.1,0-7.4,3.3-7.4,7.4v1.1c0-4.1,3.3-7.4,7.4-7.4c4.1,0,7.4,3.3,7.4,7.4
		V25.2z"/>
	<path class="st6" d="M58.2,30.1h-2.6c-0.1,0-0.2-0.1-0.2-0.2v-0.7c0-0.1,0.1-0.2,0.2-0.2h2.6c0.1,0,0.2,0.1,0.2,0.2v0.7
		C58.3,30,58.3,30.1,58.2,30.1z"/>
	<rect x="55.7" y="28.2" class="st5" width="2.4" height="0.8"/>
</g>
</svg>
