<?xml version="1.0" encoding="utf-8"?>
<!-- Generator: Adobe Illustrator 26.5.0, SVG Export Plug-In . SVG Version: 6.00 Build 0)  -->
<svg version="1.1" id="Layer_1" xmlns="http://www.w3.org/2000/svg" xmlns:xlink="http://www.w3.org/1999/xlink" x="0px" y="0px"
	 viewBox="0 0 121 51" style="enable-background:new 0 0 121 51;" xml:space="preserve">
<style type="text/css">
	.st0{fill:#FFFFFF;}
</style>
<g>
	<path class="st0" d="M71.93,21.25c-5.23,2.59-6.38,8.47-3.63,12.52c2.75,4.05,8.36,4.92,12.21,1.94c3.48-2.7,5.01-8.62,0.37-13.1
		c0.4-0.18,0.63,0.12,0.89,0.33c1.7,1.43,2.59,3.3,2.92,5.44c0.09,0.56,0.26,0.72,0.8,0.71c1.71-0.03,3.42-0.05,5.12,0.01
		c0.75,0.03,0.91-0.22,0.91-0.93c-0.02-8.66,0-17.32-0.04-25.97c0-0.94,0.21-1.29,1.17-1.17c0.61,0.08,1.24,0.06,1.86,0
		c0.79-0.08,1.05,0.14,1.04,1c-0.05,4.53-0.02,9.06-0.02,13.59c0,5.37-0.01,10.74,0.02,16.11c0,0.68-0.14,0.9-0.86,0.89
		c-3.04-0.04-6.08,0-9.12-0.04c-0.59-0.01-0.86,0.13-1,0.74c-0.98,4.32-4.28,7.07-8.7,7.31c-2.66,0.15-5.21-0.15-7.41-1.83
		c-1.78-1.36-2.84-3.18-3.26-5.35c-0.14-0.7-0.42-0.87-1.09-0.86c-5.8,0.03-11.61,0.02-17.41,0c-0.61,0-1.03,0.2-1.45,0.62
		c-3.81,3.87-7.66,7.7-11.45,11.58c-0.61,0.62-0.97,0.58-1.44-0.02c-0.04-0.05-0.09-0.09-0.13-0.13c-0.6-0.62-1.73-1.09-1.71-1.82
		c0.01-0.62,1.03-1.22,1.62-1.81c3.81-3.83,7.63-7.64,11.42-11.48c0.34-0.35,0.68-0.45,1.14-0.45c2.61,0.02,5.22-0.02,7.82,0.03
		c0.75,0.01,1.02-0.14,0.99-0.95c-0.07-1.61,0.01-3.23-0.04-4.84c-0.02-0.63,0.19-0.8,0.79-0.76c0.84,0.05,1.68,0.05,2.51,0
		c0.61-0.04,0.72,0.21,0.71,0.75c-0.03,1.68,0.02,3.35-0.03,5.03c-0.02,0.63,0.19,0.78,0.79,0.77c1.95-0.03,3.91-0.05,5.87,0.01
		c0.7,0.02,0.93-0.22,1.07-0.87c0.66-3.2,2.49-5.48,5.51-6.77c0.2-0.08,0.41-0.16,0.62-0.2C71.42,21.22,71.57,21.25,71.93,21.25z"/>
	<path class="st0" d="M24.9,38.42c-5.51,0.02-9.93-4.38-9.96-9.9c-0.03-5.49,4.41-9.96,9.9-9.97c5.43-0.01,9.93,4.39,9.95,9.73
		C34.81,33.97,30.5,38.4,24.9,38.42z M18.31,28.7c0.01,3.65,2.97,6.65,6.6,6.67c3.69,0.03,6.74-3.04,6.72-6.76
		C31.6,25.01,28.58,22,24.97,22C21.29,22.01,18.3,25.01,18.31,28.7z"/>
	<path class="st0" d="M101.38,18.75c0-4.31,0.01-8.62-0.02-12.92c0-0.68,0.15-0.95,0.87-0.89c0.74,0.06,1.49,0.07,2.23,0
		c0.76-0.07,0.92,0.22,0.92,0.93c-0.03,7-0.02,14.01-0.02,21.01c0,1.67-0.02,3.35,0.01,5.02c0.01,0.52-0.13,0.72-0.68,0.69
		c-0.84-0.04-1.68-0.05-2.51,0c-0.67,0.04-0.83-0.19-0.83-0.83C101.39,27.43,101.38,23.09,101.38,18.75z"/>
	<path class="st0" d="M74.42,20c-1.26-0.24-2.23,0.35-3.25,0.78c-0.41,0.17-0.89,0.7-1.22,0.38c-0.31-0.31,0.22-0.81,0.38-1.21
		c0.8-2.01,2.09-3.59,4.21-4.31c3.02-1.03,5.84-0.23,8.64,0.98c-1.05,0.13-1.68,0.83-2.28,1.56c-1.06,1.29-2.01,2.67-3.29,3.78
		c-1.91,1.66-4.06,1.61-6.31,0.99c-0.7-0.2-0.3-0.52-0.05-0.78c0.66-0.67,1.43-1.18,2.32-1.52C73.87,20.54,74.21,20.42,74.42,20z"/>
	<path class="st0" d="M46.99,35.76c1.68-0.02,3.02,1.31,3.02,2.99c0,1.62-1.31,2.96-2.93,3c-1.66,0.04-3.04-1.3-3.07-2.96
		C43.97,37.1,45.28,35.77,46.99,35.76z"/>
	<path class="st0" d="M28.76,17.37c-1.69,0.01-3.02-1.32-3-3c0.02-1.64,1.32-2.95,2.95-2.97c1.68-0.02,3.06,1.31,3.06,2.97
		C31.77,16.06,30.46,17.37,28.76,17.37z"/>
	<path class="st0" d="M24.76,14.42c0,1.74-1.25,2.96-3,2.95c-1.66-0.01-2.94-1.28-2.96-2.93c-0.02-1.66,1.33-3.03,2.99-3.03
		C23.47,11.41,24.76,12.72,24.76,14.42z"/>
	<path class="st0" d="M83.51,47.86c-1.46,0-2.92,0.01-4.37,0c-1.34-0.01-1.8-0.49-1.8-1.8c0-1.24,0.46-1.69,1.77-1.71
		c0.03,0,0.06,0,0.09,0c1.71-0.02,1.73-0.02,1.72,1.71c0,0.61,0.04,0.96,0.82,0.96c0.82,0,0.92-0.37,0.88-1.01
		c-0.03-0.4,0-0.81,0-1.21c0-0.33,0.19-0.41,0.48-0.41c0.3,0,0.48,0.1,0.47,0.42c-0.01,0.31,0,0.62,0,0.93
		c0,1.19,0.55,1.59,1.7,1.23c0.21-0.07,0.31-0.16,0.28-0.39c-0.02-0.15-0.03-0.31-0.02-0.46c0.03-1.64,1.06-2.28,2.59-1.62
		c0.58,0.25,0.68,0.73,0.75,1.27c0.28,2.09,0.29,2.09-1.74,2.09C85.93,47.86,84.72,47.86,83.51,47.86z M79.94,46.11
		c0.04-0.5,0.05-0.94-0.67-0.9c-0.57,0.03-0.94,0.16-0.95,0.85c-0.01,0.69,0.29,0.91,0.95,0.94C80.01,47.03,79.97,46.6,79.94,46.11z
		 M88,46.27c-0.06-0.54-0.12-1.04-0.87-1.05c-0.72-0.01-0.67,0.49-0.7,0.95c-0.04,0.62,0.25,0.86,0.89,0.84
		C87.86,46.99,88.04,46.77,88,46.27z"/>
	<path class="st0" d="M67.91,47.86c-1.39,0-2.79,0.02-4.18-0.01c-0.58-0.01-0.93,0.09-0.99,0.75c-0.05,0.5-0.4,0.84-0.92,0.91
		c-0.2,0.03-0.47,0.1-0.55-0.18c-0.07-0.23-0.14-0.54,0.15-0.65c0.6-0.21,0.53-0.7,0.54-1.15c0.02-0.87,0.01-1.74,0.01-2.6
		c0-0.3,0.03-0.55,0.44-0.55c0.4,0,0.44,0.25,0.44,0.55c0,0.22,0,0.43,0,0.65c0,1.5,0.12,1.59,1.65,1.41
		c0.36-0.04,0.49-0.16,0.48-0.51c-0.01-0.56,0.01-1.12,0-1.67c0-0.32,0.15-0.43,0.46-0.43c0.29,0,0.48,0.07,0.48,0.41
		c0,0.5,0.03,0.99,0,1.49c-0.03,0.49,0.09,0.75,0.66,0.72c0.77-0.04,1.55-0.03,2.32-0.01c0.49,0.02,0.69-0.18,0.62-0.66
		c-0.06-0.44,0.21-1.07-0.6-1.11c-0.34-0.02-0.68-0.01-1.02-0.01c-0.21,0-0.37-0.06-0.39-0.3c-0.01-0.21,0.07-0.35,0.29-0.4
		c0.64-0.14,1.29-0.28,1.93-0.1c0.87,0.24,0.68,1,0.7,1.62c0.02,0.5-0.09,1,0.71,0.98c0.66-0.01,0.96-0.17,0.9-0.9
		c-0.06-0.83-0.01-1.67-0.03-2.51c-0.01-0.35,0-0.59,0.47-0.58c0.46,0.01,0.48,0.26,0.48,0.6c-0.01,1.18-0.03,2.36,0.01,3.53
		c0.02,0.61-0.26,0.72-0.78,0.71C70.76,47.85,69.34,47.86,67.91,47.86z"/>
	<path class="st0" d="M92.19,44.99c0-0.4,0-0.81,0-1.21c0-0.36-0.11-0.76,0.51-0.75c0.65,0.01,0.44,0.47,0.45,0.79
		c0.02,0.84,0.04,1.67,0,2.51c-0.03,0.67,0.38,0.65,0.84,0.65c0.44,0.01,0.81-0.02,0.77-0.62c-0.03-0.4,0-0.81-0.01-1.21
		c-0.01-0.31,0.12-0.44,0.44-0.44c0.32,0,0.44,0.15,0.44,0.45c0,0.4-0.01,0.81,0,1.21c0.01,0.24-0.06,0.54,0.3,0.57
		c0.36,0.03,0.49-0.23,0.51-0.53c0.03-0.37,0.04-0.74,0.03-1.11c-0.01-0.35,0.04-0.6,0.49-0.59c0.42,0.01,0.42,0.26,0.42,0.56
		c0,0.4,0,0.81,0,1.21c0,0.27,0.03,0.49,0.39,0.49c0.34,0.01,0.43-0.18,0.43-0.47c-0.01-0.5-0.04-0.99-0.04-1.49
		c0-0.24-0.15-0.59,0.31-0.63c0.42-0.03,0.54,0.23,0.57,0.57c0.05,0.77,0.09,1.54,0.14,2.32c0.03,0.43-0.14,0.6-0.59,0.6
		c-2.83-0.01-5.67,0-8.5-0.01c-0.25,0-0.52,0.02-0.54-0.34c-0.02-0.26-0.01-0.53,0.34-0.53c0.47,0,0.45-0.31,0.45-0.63
		c0-0.62,0-1.24-0.01-1.86c0-0.32,0.05-0.53,0.45-0.54c0.43-0.01,0.53,0.19,0.52,0.56c-0.01,0.65,0,1.3,0,1.95
		c0,0.35,0.16,0.5,0.51,0.5c0.35,0,0.39-0.23,0.39-0.5C92.19,45.99,92.19,45.49,92.19,44.99z"/>
	<path class="st0" d="M57.37,47.86c-0.68,0-1.37,0.04-2.05-0.01c-1.09-0.07-1.52-0.6-1.51-1.81c0.01-1.16,0.41-1.6,1.51-1.69
		c2.01-0.16,2.04-0.16,2.05,1.82c0,0.66,0.23,0.84,0.86,0.84c0.63,0,0.92-0.17,0.85-0.84c-0.05-0.43,0-0.87-0.01-1.3
		c-0.01-0.36,0.16-0.48,0.51-0.49c0.38-0.01,0.49,0.19,0.47,0.52c0,0.06,0,0.12,0,0.19C60.17,47.86,60.17,47.86,57.37,47.86z
		 M56.41,46.13c0.06-0.5,0.09-0.97-0.69-0.93c-0.63,0.03-0.98,0.25-0.96,0.94c0.01,0.65,0.38,0.81,0.96,0.85
		C56.4,47.05,56.51,46.7,56.41,46.13z"/>
	<path class="st0" d="M103.51,45.45c0,2.42,0,2.42-2.39,2.42c-0.22,0-0.43,0-0.65,0c-0.27-0.01-0.58,0.06-0.62-0.36
		c-0.04-0.35,0.1-0.52,0.46-0.52c0.41,0,0.4-0.29,0.4-0.58c0-0.56-0.02-1.12,0.01-1.67c0.01-0.32-0.19-0.78,0.47-0.76
		c0.64,0.02,0.43,0.48,0.45,0.8c0.03,0.49,0,0.99,0.01,1.49c0.01,0.32-0.11,0.71,0.45,0.73c0.54,0.01,0.48-0.35,0.49-0.69
		c0-0.9,0.01-1.8,0.01-2.7c0-0.29-0.03-0.55,0.4-0.56c0.42-0.01,0.54,0.17,0.53,0.55C103.5,44.21,103.51,44.83,103.51,45.45z"/>
	<path class="st0" d="M74.96,45.51c0,0.62-0.01,1.24,0,1.85c0,0.34-0.12,0.51-0.49,0.5c-0.35,0-0.5-0.14-0.5-0.5
		c0.01-1.3,0.01-2.6,0-3.89c0-0.4,0.22-0.44,0.54-0.44c0.31,0,0.46,0.11,0.45,0.43C74.96,44.15,74.96,44.83,74.96,45.51z"/>
	<path class="st0" d="M105.43,45.52c0,0.59-0.01,1.18,0,1.76c0.01,0.36-0.06,0.6-0.5,0.58c-0.4-0.01-0.44-0.24-0.44-0.55
		c0.01-1.24,0.01-2.48,0-3.71c0-0.37,0.07-0.58,0.51-0.57c0.4,0.01,0.45,0.22,0.44,0.54C105.43,44.22,105.43,44.87,105.43,45.52
		C105.43,45.52,105.43,45.52,105.43,45.52z"/>
	<path class="st0" d="M101.95,49.59c-0.32,0.31-0.73,0.31-1.1,0.37c-0.15,0.02-0.42,0.13-0.36-0.21c0.08-0.42-0.25-0.94,0.3-1.24
		c0.26-0.14,0.54-0.15,0.79,0.02c0.09,0.06,0.12,0.23-0.02,0.31c-0.19,0.11-0.58,0.07-0.47,0.42
		C101.21,49.68,101.66,49.19,101.95,49.59z"/>
	<path class="st0" d="M82.59,48.4c0.32-0.01,0.31,0.22,0.32,0.44c0.02,0.33-0.15,0.44-0.45,0.4c-0.32-0.04-0.26-0.28-0.27-0.49
		C82.17,48.47,82.32,48.37,82.59,48.4z"/>
	<path class="st0" d="M65.29,48.82c0,0.24-0.06,0.42-0.35,0.42c-0.27,0-0.39-0.11-0.38-0.38c0.01-0.27,0.04-0.48,0.39-0.47
		C65.25,48.4,65.29,48.59,65.29,48.82z"/>
	<path class="st0" d="M56.32,42.9c0.31,0,0.31,0.22,0.32,0.44c0.01,0.24-0.04,0.42-0.34,0.42c-0.36,0-0.39-0.22-0.38-0.49
		C55.93,43.02,56.05,42.88,56.32,42.9z"/>
	<path class="st0" d="M69.06,43.77c-0.3,0.02-0.46-0.09-0.47-0.41c0-0.33,0.09-0.51,0.47-0.5c0.34,0.01,0.4,0.18,0.4,0.47
		C69.47,43.6,69.4,43.8,69.06,43.77z"/>
	<path class="st0" d="M79.76,42.89c0.27-0.01,0.4,0.1,0.41,0.37c0.01,0.27-0.01,0.49-0.36,0.5c-0.31,0.01-0.34-0.18-0.35-0.41
		C79.46,43.14,79.46,42.91,79.76,42.89z"/>
	<path class="st0" d="M55.64,43.31c0,0.23-0.03,0.43-0.33,0.45c-0.28,0.02-0.4-0.09-0.4-0.36c0-0.25-0.04-0.52,0.35-0.5
		C55.54,42.9,55.64,43.05,55.64,43.31z"/>
	<path class="st0" d="M79.13,43.34c0,0.23-0.03,0.43-0.34,0.42c-0.27,0-0.38-0.14-0.38-0.39c-0.01-0.28,0.06-0.48,0.4-0.47
		C79.13,42.9,79.12,43.12,79.13,43.34z"/>
	<path class="st0" d="M59.03,48.41c0.26-0.01,0.36,0.12,0.35,0.38c-0.01,0.21,0.02,0.44-0.3,0.45c-0.31,0.01-0.43-0.13-0.42-0.43
		C58.67,48.56,58.73,48.39,59.03,48.41z"/>
	<path class="st0" d="M60.47,48.84c0.03,0.27-0.13,0.36-0.37,0.39c-0.4,0.04-0.33-0.25-0.34-0.48c-0.01-0.27,0.12-0.37,0.39-0.35
		C60.43,48.43,60.49,48.6,60.47,48.84z"/>
	<path class="st0" d="M83.95,48.85c0.02,0.27-0.1,0.39-0.38,0.38c-0.31-0.01-0.34-0.19-0.34-0.43c0-0.26,0.07-0.4,0.37-0.38
		C83.89,48.44,83.96,48.59,83.95,48.85z"/>
	<path class="st0" d="M65.95,49.22c-0.34-0.02-0.39-0.2-0.39-0.44c0-0.27,0.13-0.38,0.39-0.36c0.29,0.02,0.32,0.2,0.32,0.43
		C66.27,49.11,66.17,49.25,65.95,49.22z"/>
</g>
</svg>
